# This file uses centimeters as units for non-parametric coordinates.

mtllib -2_PitWall.mtl
g default
v 1.000000 -4.000000 -1.000000
v -1.000000 -4.000000 -1.000000
v 1.000000 -2.000000 -1.000000
v -1.000000 -2.000000 -1.000000
vt 0.000000 0.000000
vt 1.000000 0.000000
vt 1.000000 1.000000
vt 0.000000 1.000000
vn -0.000000 -0.000000 -1.000000
vn -0.000000 -0.000000 -1.000000
vn -0.000000 -0.000000 -1.000000
vn -0.000000 -0.000000 -1.000000
s off
g pCube3 group2
usemtl lambert5SG
f 1/1/1 2/2/2 4/3/3 3/4/4
g default
v 1.000000 -4.000000 1.000000
v -1.000000 -4.000000 1.000000
v 1.000000 -2.000000 1.000000
v -1.000000 -2.000000 1.000000
vt 0.000000 0.000000
vt 1.000000 0.000000
vt 1.000000 1.000000
vt 0.000000 1.000000
vn 0.000000 0.000000 1.000000
vn 0.000000 0.000000 1.000000
vn 0.000000 0.000000 1.000000
vn 0.000000 0.000000 1.000000
s off
g group2 pCube7
usemtl lambert5SG
f 5/5/5 7/8/6 8/7/7 6/6/8
g default
v 1.000000 -4.000000 1.000000
v 1.000000 -4.000000 -1.000000
v 1.000000 -2.000000 1.000000
v 1.000000 -2.000000 -1.000000
vt 0.000000 0.000000
vt 1.000000 0.000000
vt 1.000000 1.000000
vt 0.000000 1.000000
vn 1.000000 -0.000000 0.000000
vn 1.000000 -0.000000 0.000000
vn 1.000000 -0.000000 0.000000
vn 1.000000 -0.000000 0.000000
s off
g group2 pCube10
usemtl lambert5SG
f 9/9/9 10/10/10 12/11/11 11/12/12
g default
v -1.000000 -4.000000 1.000000
v -1.000000 -4.000000 -1.000000
v -1.000000 -2.000000 1.000000
v -1.000000 -2.000000 -1.000000
vt 0.000000 0.000000
vt 1.000000 0.000000
vt 1.000000 1.000000
vt 0.000000 1.000000
vn -1.000000 0.000000 -0.000000
vn -1.000000 0.000000 -0.000000
vn -1.000000 0.000000 -0.000000
vn -1.000000 0.000000 -0.000000
s off
g group2 pCube13
usemtl lambert5SG
f 13/13/13 15/16/14 16/15/15 14/14/16
