# This file uses centimeters as units for non-parametric coordinates.

mtllib 2-Rock Wall.mtl
g default
v 1.000000 4.000000 -1.000000
v -1.000000 4.000000 -1.000000
v 1.000000 6.000000 -1.000000
v -1.000000 6.000000 -1.000000
v -1.000000 4.000000 -1.000000
v -1.000000 4.000000 1.000000
v -1.000000 6.000000 -1.000000
v -1.000000 6.000000 1.000000
v -1.000000 4.000000 1.000000
v 1.000000 4.000000 1.000000
v -1.000000 6.000000 1.000000
v 1.000000 6.000000 1.000000
v 1.000000 4.000000 1.000000
v 1.000000 4.000000 -1.000000
v 1.000000 6.000000 1.000000
v 1.000000 6.000000 -1.000000
vt 0.000000 0.000000
vt 0.000000 1.000000
vt 1.000000 1.000000
vt 1.000000 0.000000
vt 0.000000 0.000000
vt 1.000000 0.000000
vt 1.000000 1.000000
vt 0.000000 1.000000
vt 0.000000 0.000000
vt 1.000000 0.000000
vt 1.000000 1.000000
vt 0.000000 1.000000
vt 0.000000 0.000000
vt 1.000000 0.000000
vt 1.000000 1.000000
vt 0.000000 1.000000
vn 0.000000 0.000000 -1.000000
vn 0.000000 0.000000 -1.000000
vn 0.000000 0.000000 -1.000000
vn 0.000000 0.000000 -1.000000
vn -1.000000 -0.000000 -0.000000
vn -1.000000 -0.000000 -0.000000
vn -1.000000 -0.000000 -0.000000
vn -1.000000 -0.000000 -0.000000
vn -0.000000 -0.000000 1.000000
vn -0.000000 -0.000000 1.000000
vn -0.000000 -0.000000 1.000000
vn -0.000000 -0.000000 1.000000
vn 1.000000 0.000000 0.000000
vn 1.000000 0.000000 0.000000
vn 1.000000 0.000000 0.000000
vn 1.000000 0.000000 0.000000
s off
g polySurface14
usemtl lambert3SG
f 1/1/1 2/4/2 4/3/3 3/2/4
f 5/5/5 6/6/6 8/7/7 7/8/8
f 9/9/9 10/10/10 12/11/11 11/12/12
f 13/13/13 14/14/14 16/15/15 15/16/16
