# This file uses centimeters as units for non-parametric coordinates.

mtllib 3-Stalactite.mtl
g default
v -0.142534 5.566555 0.526944
v 0.271287 5.566555 0.289331
v 0.379719 5.650600 0.227070
v 0.526944 5.748263 0.142534
v -0.166444 5.952551 0.679809
v 0.186400 5.952551 0.583022
v 0.350480 5.952551 0.351995
v 0.573640 5.952551 0.223859
v -0.639741 5.952551 0.066212
v -0.047498 5.966040 -0.613278
v 0.076058 5.952551 -0.642716
v -0.526944 5.566555 -0.142534
v -0.259807 5.387755 -0.295922
v 0.018977 5.580045 -0.497505
v 0.142534 5.566555 -0.526944
v -0.361112 5.566555 0.146274
v -0.093975 5.387755 -0.007114
v 0.047511 5.566555 -0.175648
v 0.270671 5.566555 -0.303784
v -0.308366 5.566555 0.238136
v 0.105455 5.566555 0.000523
v 0.251583 5.650600 0.003910
v 0.398807 5.748263 -0.080625
v 0.419513 5.952551 -0.389249
v 0.547650 5.952551 -0.166089
v -0.412527 5.952551 0.306430
v -0.284390 5.952551 0.529590
v -0.409025 5.066913 -0.110638
v -0.335680 5.066913 -0.152752
v -0.293566 5.066913 -0.079408
v -0.366911 5.066913 -0.037293
v -0.161369 4.566547 0.333350
v -0.077077 4.566547 0.284949
v -0.028676 4.566547 0.369242
v -0.112969 4.566547 0.417642
v -0.664471 5.952551 -0.157637
v -0.447757 5.952551 -0.521410
v -0.344406 5.722277 -0.341416
v -0.567565 5.722277 -0.213280
v -0.224598 5.952551 -0.649547
v -0.121246 5.722277 -0.469553
v 0.118387 5.425389 -0.448853
v 0.157608 5.421107 -0.458197
v 0.198283 5.421107 -0.387359
v 0.127445 5.421107 -0.346684
vt 0.318969 0.791467
vt 0.511832 0.789989
vt 0.445257 0.968740
vt 0.298087 0.954263
vt 0.565040 0.819598
vt 0.558115 0.949244
vt 0.657541 0.853400
vt 0.661997 0.944143
vt 0.857707 0.158717
vt 0.878021 0.398489
vt 0.699499 0.368369
vt 0.717267 0.219928
vt 0.844082 0.542023
vt 0.660179 0.513289
vt 0.785855 0.625380
vt 0.742103 0.684814
vt 0.517576 0.707068
vt 0.550191 0.558661
vt 0.502426 0.276547
vt 0.489637 0.291819
vt 0.467506 0.292384
vt 0.473891 0.259013
vt 0.544610 0.380111
vt 0.367828 0.470466
vt 0.371173 0.330357
vt 0.462172 0.577576
vt 0.454345 0.586937
vt 0.422809 0.587534
vt 0.422817 0.556445
vt 0.406223 0.130999
vt 0.266778 0.418626
vt 0.344899 0.135897
vt 0.199461 0.485896
vt 0.336700 0.669463
vt 0.181623 0.584096
vt 0.225360 0.243877
vt 0.225382 0.284844
vt 0.180690 0.264964
vt 0.201822 0.252267
vt 0.055544 0.441291
vt 0.065888 0.364403
vt 0.047397 0.538803
vt 0.792390 0.674827
vt 0.871255 0.616096
vt 0.977080 0.702449
vt 0.881829 0.815740
vt 0.740983 0.791311
vt 0.805361 0.877829
vt 0.054356 0.626151
vt 0.167743 0.698689
vt 0.141980 0.862341
vt 0.022920 0.801636
vt 0.204236 0.721077
vt 0.230633 0.916730
vt 0.630847 0.099674
vt 0.138318 0.074857
vt 0.820417 0.046568
vn 0.361288 -0.428218 0.828312
vn 0.519166 -0.371954 0.769491
vn 0.437909 -0.403116 0.803575
vn 0.361288 -0.428218 0.828312
vn 0.676136 -0.284125 0.679789
vn 0.679329 -0.282777 0.677162
vn 0.534048 -0.334723 0.776372
vn 0.534048 -0.334723 0.776372
vn -0.665638 -0.450150 -0.595224
vn -0.513727 -0.579404 -0.632753
vn -0.531763 -0.566139 -0.629853
vn -0.665638 -0.450150 -0.595224
vn -0.369873 -0.669515 -0.644161
vn -0.369873 -0.669515 -0.644161
vn -0.252443 -0.317613 -0.913999
vn -0.252443 -0.317613 -0.913999
vn -0.252443 -0.317613 -0.913999
vn -0.252443 -0.317613 -0.913999
vn 0.000000 -1.000000 0.000000
vn 0.000000 -1.000000 0.000000
vn 0.000000 -1.000000 0.000000
vn 0.000000 -1.000000 0.000000
vn 0.548700 -0.813528 -0.192613
vn 0.548700 -0.813528 -0.192613
vn 0.534158 -0.839738 -0.097545
vn 0.474199 -0.860269 0.187276
vn -0.044311 -0.998946 -0.011986
vn -0.044311 -0.998946 -0.011986
vn -0.044311 -0.998946 -0.011986
vn -0.044311 -0.998946 -0.011986
vn 0.215997 -0.689399 0.691429
vn 0.528038 -0.849204 0.005324
vn 0.215997 -0.689399 0.691429
vn 0.458380 -0.887051 -0.055028
vn 0.385379 -0.883795 0.265309
vn 0.423182 -0.905996 0.009407
vn 0.000000 -1.000000 0.000000
vn 0.000000 -1.000000 0.000000
vn 0.000000 -1.000000 0.000000
vn 0.000000 -1.000000 0.000000
vn 0.456777 -0.850038 -0.262278
vn 0.483774 -0.829940 -0.277780
vn 0.432434 -0.866803 -0.248301
vn 0.749028 -0.333198 -0.572657
vn 0.688115 -0.250895 -0.680845
vn 0.688115 -0.250895 -0.680845
vn 0.770101 -0.366289 -0.522280
vn 0.846744 -0.468003 -0.252977
vn 0.847451 -0.467079 -0.252318
vn 0.878857 -0.422846 -0.220932
vn 0.878857 -0.422846 -0.220932
vn -0.730429 -0.414695 0.542679
vn -0.758055 -0.386406 0.525398
vn -0.772109 -0.371138 0.515853
vn -0.730429 -0.414695 0.542679
vn -0.816205 -0.303332 0.491731
vn -0.807728 -0.300323 0.507327
vn -0.801632 -0.298157 0.518158
vn -0.801632 -0.298157 0.518158
vn -0.564702 -0.199793 -0.800746
vn -0.564702 -0.199793 -0.800746
vn -0.564702 -0.199793 -0.800746
vn -0.564702 -0.199793 -0.800746
vn 0.797464 -0.392914 -0.457898
vn 0.797463 -0.392914 -0.457898
vn 0.797463 -0.392914 -0.457898
vn 0.797464 -0.392914 -0.457898
vn 0.318922 -0.354003 0.879188
vn 0.318922 -0.354003 0.879188
vn 0.318922 -0.354003 0.879188
vn 0.318922 -0.354003 0.879188
vn -0.854533 -0.170352 0.490667
vn -0.854533 -0.170352 0.490667
vn -0.854533 -0.170352 0.490667
vn -0.854533 -0.170352 0.490667
vn -0.492012 -0.153909 -0.856876
vn -0.492012 -0.153909 -0.856876
vn -0.492012 -0.153909 -0.856876
vn -0.492012 -0.153909 -0.856876
vn 0.830654 -0.287277 -0.476955
vn 0.830654 -0.287277 -0.476955
vn 0.830654 -0.287277 -0.476955
vn 0.830654 -0.287277 -0.476955
vn 0.496356 -0.079809 0.864442
vn 0.496357 -0.079809 0.864442
vn 0.496357 -0.079809 0.864442
vn 0.496357 -0.079809 0.864442
vn -0.864442 -0.079809 0.496357
vn -0.864442 -0.079809 0.496357
vn -0.864442 -0.079809 0.496356
vn -0.864442 -0.079809 0.496357
vn -0.557141 -0.323635 -0.764758
vn -0.557141 -0.323635 -0.764757
vn -0.557141 -0.323635 -0.764757
vn -0.557141 -0.323635 -0.764758
vn -0.941904 -0.334332 0.032221
vn -0.941904 -0.334332 0.032221
vn -0.941904 -0.334332 0.032221
vn -0.941904 -0.334332 0.032221
vn -0.165177 -0.463364 -0.870638
vn -0.165177 -0.463364 -0.870638
vn -0.165177 -0.463364 -0.870638
vn -0.165177 -0.463364 -0.870638
vn -0.463023 -0.249639 -0.850465
vn -0.463023 -0.249639 -0.850465
vn -0.463023 -0.249639 -0.850465
vn -0.463023 -0.249639 -0.850465
vn -0.253361 -0.434719 -0.864192
vn -0.253361 -0.434719 -0.864192
vn -0.253361 -0.434719 -0.864192
vn -0.253361 -0.434719 -0.864192
vn 0.858175 -0.143962 -0.492758
vn 0.858175 -0.143962 -0.492758
vn 0.858175 -0.143962 -0.492758
vn 0.858175 -0.143962 -0.492758
vn 0.399098 -0.598008 0.695060
vn 0.399098 -0.598008 0.695060
vn 0.399098 -0.598008 0.695059
vn 0.399098 -0.598008 0.695060
vn -0.847526 -0.528101 0.053004
vn -0.847526 -0.528101 0.053004
vn -0.847526 -0.528101 0.053004
vn -0.847526 -0.528101 0.053004
s 1
g pCube3 group1
usemtl initialShadingGroup
f 1/1/1 2/2/2 6/3/3 5/4/4
f 2/2/2 3/5/5 7/6/6 6/3/3
f 3/5/5 4/7/7 8/8/8 7/6/6
s 2
f 36/9/9 37/10/10 38/11/11 39/12/12
f 37/10/10 40/13/13 41/14/14 38/11/11
s off
f 10/15/15 11/16/16 15/17/17 14/18/18
f 28/19/19 29/20/20 30/21/21 31/22/22
s 3
f 13/23/23 14/18/24 18/24/25 17/25/26
s off
f 42/26/27 43/27/28 44/28/29 45/29/30
s 3
f 16/30/31 17/25/26 21/31/32 20/32/33
f 17/25/26 18/24/25 22/33/34 21/31/32
f 18/24/25 19/34/35 23/35/36 22/33/34
s off
f 32/36/37 33/37/38 34/38/39 35/39/40
s 3
f 21/31/32 22/33/34 3/40/41 2/41/42
f 22/33/34 23/35/36 4/42/43 3/40/41
s 4
f 19/43/44 15/44/45 11/45/46 24/46/47
f 23/47/48 19/43/44 24/46/47 25/48/49
f 4/7/50 23/47/48 25/48/49 8/8/51
s 5
f 12/49/52 16/50/53 26/51/54 9/52/55
f 16/50/53 20/53/56 27/54/57 26/51/54
f 20/53/56 1/1/58 5/4/59 27/54/57
s off
f 12/55/60 13/23/61 29/20/62 28/19/63
f 13/23/64 17/25/65 30/21/66 29/20/67
f 17/25/68 16/30/69 31/22/70 30/21/71
f 16/30/72 12/55/73 28/19/74 31/22/75
f 20/32/76 21/31/77 33/37/78 32/36/79
f 21/31/80 2/41/81 34/38/82 33/37/83
f 2/41/84 1/56/85 35/39/86 34/38/87
f 1/56/88 20/32/89 32/36/90 35/39/91
f 13/23/92 12/55/93 39/12/94 38/11/95
f 12/55/96 9/57/97 36/9/98 39/12/99
f 10/15/100 14/18/101 41/14/102 40/13/103
f 14/18/104 13/23/105 38/11/106 41/14/107
f 14/18/108 15/17/109 43/27/110 42/26/111
f 15/17/112 19/34/113 44/28/114 43/27/115
f 19/34/116 18/24/117 45/29/118 44/28/119
f 18/24/120 14/18/121 42/26/122 45/29/123
