# This file uses centimeters as units for non-parametric coordinates.

mtllib Pit_OBJ.mtl
g default
v -1.000000 -6.000000 1.000000
v 1.000000 -6.000000 1.000000
v -1.000000 -6.000000 -1.000000
v 1.000000 -6.000000 -1.000000
v 1.000000 5.914499 1.000000
v -1.000000 5.914499 1.000000
v 1.000000 5.914499 -1.000000
v -1.000000 5.914499 -1.000000
vt 0.000000 0.000000
vt 0.789087 0.000000
vt 0.000000 1.000000
vt 0.789087 1.000000
vt 0.000000 0.000000
vt 1.000000 0.000000
vt 1.000000 1.000000
vt 0.000000 1.000000
vn 0.000000 1.000000 0.000000
vn 0.000000 1.000000 0.000000
vn 0.000000 1.000000 0.000000
vn 0.000000 1.000000 0.000000
vn 0.000000 -1.000000 0.000000
vn 0.000000 -1.000000 0.000000
vn 0.000000 -1.000000 0.000000
vn 0.000000 -1.000000 0.000000
s off
g pPlane3
usemtl lambert2SG
f 1/1/1 2/2/2 4/4/3 3/3/4
usemtl Floor_Obj_Test:lambert4SG
f 5/5/5 6/6/6 8/7/7 7/8/8
